<svg xmlns="http://www.w3.org/2000/svg" width="512" height="512" viewBox="0 0 512 512">
  <defs>
    <linearGradient id="g" x1="0" y1="0" x2="1" y2="1">
      <stop offset="0" stop-color="#1f4b73"/>
      <stop offset="1" stop-color="#2f7f8e"/>
    </linearGradient>
  </defs>
  <rect x="0" y="0" width="512" height="512" rx="100" fill="url(#g)"/>
  <rect x="140" y="64" width="232" height="384" rx="56" fill="#d9e7f5" opacity="0.95"/>
  <g fill="#1f4b73">
    <circle cx="112" cy="112" r="30"/>
    <circle cx="112" cy="176" r="30"/>
    <circle cx="112" cy="240" r="30"/>
    <circle cx="112" cy="304" r="30"/>
    <circle cx="112" cy="368" r="30"/>
    <circle cx="112" cy="432" r="30"/>
    <circle cx="400" cy="112" r="30"/>
    <circle cx="400" cy="176" r="30"/>
    <circle cx="400" cy="240" r="30"/>
    <circle cx="400" cy="304" r="30"/>
    <circle cx="400" cy="368" r="30"/>
    <circle cx="400" cy="432" r="30"/>
  </g>
  <rect x="182" y="102" width="148" height="18" rx="9" fill="#1f4b73"/>
  <rect x="182" y="166" width="148" height="18" rx="9" fill="#1f4b73"/>
  <rect x="182" y="230" width="148" height="18" rx="9" fill="#1f4b73"/>
  <rect x="182" y="294" width="148" height="18" rx="9" fill="#1f4b73"/>
  <rect x="182" y="358" width="148" height="18" rx="9" fill="#1f4b73"/>
  <rect x="182" y="422" width="148" height="18" rx="9" fill="#1f4b73"/>
</svg>
